<svg id="visual" viewBox="0 0 900 450" width="900" height="450" xmlns="http://www.w3.org/2000/svg" xmlns:xlink="http://www.w3.org/1999/xlink" version="1.1"><rect x="0" y="0" width="900" height="450" fill="#000000"></rect><path d="M0 361L12.5 365.8C25 370.7 50 380.3 75 374.7C100 369 125 348 150 343.3C175 338.7 200 350.3 225 357.2C250 364 275 366 300 367.2C325 368.3 350 368.7 375 366.8C400 365 425 361 450 356C475 351 500 345 525 343.3C550 341.7 575 344.3 600 346.7C625 349 650 351 675 354.8C700 358.7 725 364.3 750 363.2C775 362 800 354 825 357.2C850 360.3 875 374.7 887.5 381.8L900 389L900 451L887.5 451C875 451 850 451 825 451C800 451 775 451 750 451C725 451 700 451 675 451C650 451 625 451 600 451C575 451 550 451 525 451C500 451 475 451 450 451C425 451 400 451 375 451C350 451 325 451 300 451C275 451 250 451 225 451C200 451 175 451 150 451C125 451 100 451 75 451C50 451 25 451 12.5 451L0 451Z" fill="#0043a8" stroke-linecap="round" stroke-linejoin="miter"></path></svg>