<?xml version="1.0" standalone="no"?>
<!DOCTYPE svg PUBLIC "-//W3C//DTD SVG 20010904//EN"
 "http://www.w3.org/TR/2001/REC-SVG-20010904/DTD/svg10.dtd">
<svg version="1.0" xmlns="http://www.w3.org/2000/svg"
 width="277.000000pt" height="277.000000pt" viewBox="0 0 277.000000 277.000000"
 preserveAspectRatio="xMidYMid meet">
<metadata>
Created by potrace 1.14, written by Peter Selinger 2001-2017
</metadata>
<g transform="translate(0.000000,277.000000) scale(0.100000,-0.100000)"
fill="#000000" stroke="none">
<path d="M1300 2423 c-7 -27 -14 -52 -15 -58 -20 -84 -51 -191 -57 -193 -4 -2
-5 -9 -2 -17 3 -7 0 -16 -5 -20 -6 -3 -9 -10 -6 -14 2 -5 -5 -39 -16 -77 -11
-38 -22 -80 -25 -94 -3 -14 -8 -34 -11 -45 -4 -11 -8 -23 -9 -27 -1 -5 -2 -9
-4 -10 -1 -2 -3 -10 -5 -18 -7 -33 -24 -99 -44 -170 -12 -41 -23 -84 -25 -95
-3 -11 -6 -27 -8 -35 -2 -8 -6 -19 -9 -25 -4 -5 -10 -28 -14 -50 -5 -22 -9
-44 -11 -50 -2 -5 -5 -20 -8 -33 -3 -12 -7 -26 -10 -30 -3 -5 -8 -24 -11 -42
-3 -18 -9 -38 -12 -44 -4 -6 -8 -17 -9 -26 -5 -32 -15 -76 -23 -100 -8 -21
-16 -52 -26 -95 -2 -5 -10 -37 -19 -70 -9 -33 -19 -67 -21 -75 -2 -8 -13 -49
-24 -90 -11 -41 -34 -127 -50 -190 -17 -63 -39 -146 -50 -183 l-20 -68 132 3
131 3 54 200 c29 110 96 358 148 550 52 193 97 359 99 370 2 11 36 139 75 285
112 416 137 510 159 590 12 41 21 78 21 82 0 5 -58 8 -129 8 l-129 0 -12 -47z"/>
<path d="M2035 2458 c-5 -15 -69 -255 -225 -838 -113 -422 -117 -436 -124
-469 -2 -10 -13 -49 -24 -87 -11 -38 -30 -107 -42 -154 -12 -47 -31 -114 -41
-150 -10 -36 -34 -128 -54 -205 -20 -77 -39 -148 -41 -157 -5 -17 6 -18 124
-18 l130 0 7 28 c7 24 12 45 19 77 1 6 6 17 11 24 5 8 10 24 11 35 2 23 6 40
25 106 7 25 14 54 16 65 2 11 6 27 10 35 3 8 7 21 9 29 1 8 6 26 10 40 4 14 7
29 6 33 -1 5 2 8 7 8 5 0 7 9 4 20 -3 11 -1 20 4 20 5 0 10 6 10 13 1 17 20
102 23 102 1 0 3 7 5 15 16 65 16 66 34 130 7 25 15 54 18 65 5 23 5 25 22 85
7 25 14 52 16 60 2 8 11 42 21 75 10 33 18 65 19 70 1 6 3 12 4 15 4 8 11 43
13 63 1 9 5 17 8 17 3 0 7 9 8 20 4 44 6 50 14 50 5 0 7 4 4 9 -3 4 -1 23 5
42 6 19 13 48 16 64 3 17 8 37 13 45 4 8 11 33 15 55 9 40 10 49 15 63 1 4 2
10 1 15 0 4 2 7 6 7 5 0 9 10 10 23 3 37 9 62 15 73 4 6 10 24 13 40 8 39 13
59 15 59 1 0 3 7 5 15 2 8 6 29 10 45 4 17 7 38 8 48 1 9 4 17 8 17 4 0 9 12
12 28 10 51 17 81 27 106 5 13 6 27 3 30 -4 3 -62 6 -130 6 -90 0 -125 -3
-128 -12z"/>
<path d="M600 2033 c-54 -22 -76 -98 -43 -153 53 -90 193 -50 193 55 0 75 -78
126 -150 98z"/>
<path d="M600 1073 c-54 -22 -76 -98 -43 -153 53 -90 193 -50 193 55 0 75 -78
126 -150 98z"/>
</g>
</svg>
