<?xml version="1.0" standalone="no"?>
<!DOCTYPE svg PUBLIC "-//W3C//DTD SVG 20010904//EN"
 "http://www.w3.org/TR/2001/REC-SVG-20010904/DTD/svg10.dtd">
<svg version="1.0" xmlns="http://www.w3.org/2000/svg"
 width="1250.000000pt" height="1250.000000pt" viewBox="0 0 1250.000000 1250.000000"
 preserveAspectRatio="xMidYMid meet">
<metadata>
Created by potrace 1.14, written by Peter Selinger 2001-2017
</metadata>
<g transform="translate(0.000000,1250.000000) scale(0.100000,-0.100000)"
fill="#000000" stroke="none">
<path d="M20 11204 c0 -3 1134 -1139 2520 -2524 1386 -1384 2520 -2519 2520
-2522 0 -3 -557 -2 -760 2 -41 1 -79 1 -85 0 -5 -2 -14 -2 -19 -1 -5 1 -39 2
-76 3 -48 1 -74 -4 -91 -15 -13 -10 -21 -17 -18 -17 4 0 -42 -46 -100 -102
-58 -57 -109 -107 -113 -112 -13 -18 -318 -323 -318 -318 0 3 -9 -6 -19 -19
-11 -13 -517 -523 -1125 -1133 -608 -610 -1106 -1113 -1106 -1117 0 -5 -6 -9
-14 -9 -8 0 -18 -9 -21 -20 -3 -11 -10 -20 -14 -20 -7 0 -361 -349 -361 -356
0 -3 -82 -84 -85 -84 -4 0 -270 -271 -272 -278 -2 -4 547 -8 1220 -9 672 -1
1482 -3 1799 -3 l577 -2 1795 1795 1796 1795 -2536 2536 -2535 2536 -1280 0
c-703 0 -1279 -3 -1279 -6z"/>
<path d="M8665 3835 l0 -1285 40 -1 c22 0 596 0 1276 0 l1236 -1 629 -629
c346 -346 631 -629 634 -629 4 0 4 1313 0 1610 -1 47 -1 90 0 95 1 6 2 13 1
17 -1 7 -1 91 0 118 0 8 -1 59 -3 113 -2 53 1 97 5 97 5 0 5 5 2 10 -10 16
-11 131 -2 137 4 2 4 9 0 16 -9 15 -9 60 1 75 4 7 4 12 -1 12 -4 0 -7 33 -6
73 2 39 3 79 3 87 -1 68 -4 79 -19 82 -9 2 -578 5 -1266 6 l-1250 1 -635 641
c-350 352 -638 640 -640 640 -3 0 -5 -578 -5 -1285z"/>
</g>
</svg>
