<svg width="100%" xmlns="http://www.w3.org/2000/svg"><g id="svgGroup" stroke-linecap="round" fill-rule="evenodd" font-size="9pt" stroke="#ffffff" stroke-width="0.25mm" fill="#ffffff" style="stroke:#ffffff;stroke-width:0.25mm;fill:#ffffff"><path d="M 411.45 96.2 L 391.95 96.2 L 385.45 5.46 L 398.19 5.46 L 401.44 58.24 L 402.87 81.51 L 403.91 81.51 L 414.18 27.43 L 428.61 27.43 L 438.88 81.51 L 439.92 81.51 L 441.35 58.24 L 444.73 5.46 L 456.95 5.46 L 450.45 96.2 L 430.95 96.2 L 421.72 43.68 L 420.68 43.68 L 411.45 96.2 Z M 790.01 96.2 L 777.92 96.2 L 777.92 29.12 L 790.01 29.12 L 790.01 37.83 L 790.66 37.83 A 21.029 21.029 0 0 1 793.296 32.759 A 18.702 18.702 0 0 1 795.145 30.55 A 9.454 9.454 0 0 1 799.443 28.073 Q 800.927 27.656 802.698 27.578 A 18.896 18.896 0 0 1 803.53 27.56 A 15.589 15.589 0 0 1 806.84 27.89 Q 808.975 28.354 810.574 29.47 A 8.971 8.971 0 0 1 811.785 30.485 A 12.242 12.242 0 0 1 814.528 34.78 Q 815.169 36.434 815.481 38.417 A 21.427 21.427 0 0 1 815.49 38.48 L 816.01 38.48 A 22.956 22.956 0 0 1 819.365 32.645 A 20.969 20.969 0 0 1 821.08 30.745 Q 824.33 27.56 830.44 27.56 A 17.369 17.369 0 0 1 834.453 27.992 A 10.143 10.143 0 0 1 841.295 33.02 A 19.736 19.736 0 0 1 843.035 37.373 Q 844.252 41.747 844.343 47.99 A 70.055 70.055 0 0 1 844.35 49.01 L 844.35 96.2 L 832.26 96.2 L 832.26 50.83 A 45.876 45.876 0 0 0 832.156 47.615 Q 831.94 44.551 831.274 42.646 A 7.299 7.299 0 0 0 830.57 41.145 A 5.53 5.53 0 0 0 826.712 38.617 A 8.896 8.896 0 0 0 825.11 38.48 Q 821.73 38.48 819.455 40.755 Q 817.18 43.03 817.18 47.58 L 817.18 96.2 L 805.09 96.2 L 805.09 50.83 A 47.798 47.798 0 0 0 804.992 47.639 Q 804.789 44.614 804.165 42.715 A 7.533 7.533 0 0 0 803.465 41.145 A 5.341 5.341 0 0 0 799.745 38.631 A 8.758 8.758 0 0 0 798.07 38.48 A 8.872 8.872 0 0 0 795.236 38.915 A 7.494 7.494 0 0 0 792.285 40.755 A 7.139 7.139 0 0 0 790.579 43.599 Q 790.01 45.305 790.01 47.58 L 790.01 96.2 Z M 627.64 96.2 L 627.64 0 L 641.81 0 L 641.81 58.11 L 642.46 58.11 L 652.99 47.32 L 671.84 29.12 L 688.61 29.12 L 661.44 55.51 L 691.6 96.2 L 674.57 96.2 L 651.17 63.57 L 641.81 72.28 L 641.81 96.2 L 627.64 96.2 Z M 159.12 96.2 L 159.12 0 L 173.29 0 L 173.29 40.56 L 173.94 40.56 Q 174.98 37.96 176.605 35.555 Q 178.23 33.15 180.57 31.395 A 18.113 18.113 0 0 1 184.292 29.261 A 21.902 21.902 0 0 1 186.03 28.6 Q 188.955 27.625 192.794 27.564 A 32.51 32.51 0 0 1 193.31 27.56 A 25.183 25.183 0 0 1 200.905 28.654 A 20.228 20.228 0 0 1 209.69 34.19 A 21.56 21.56 0 0 1 214.605 42.962 Q 215.93 47.407 215.93 53.04 L 215.93 96.2 L 201.76 96.2 L 201.76 55.12 A 26.741 26.741 0 0 0 201.141 49.086 Q 199.23 40.865 191.414 39.433 A 19.774 19.774 0 0 0 187.85 39.13 Q 185.12 39.13 182.52 39.845 A 15.649 15.649 0 0 0 178.571 41.52 A 14.476 14.476 0 0 0 177.84 41.99 Q 175.76 43.42 174.525 45.63 A 9.731 9.731 0 0 0 173.368 49.311 A 12.213 12.213 0 0 0 173.29 50.7 L 173.29 96.2 L 159.12 96.2 Z M 548.47 96.2 L 548.47 0 L 562.64 0 L 562.64 40.56 L 563.42 40.56 A 26.974 26.974 0 0 1 567.148 34.82 A 22.416 22.416 0 0 1 571.35 31.005 A 18.629 18.629 0 0 1 578.263 28.091 A 26.441 26.441 0 0 1 583.7 27.56 Q 595.53 27.56 602.55 36.4 Q 607.682 42.862 609.062 53.908 A 70.728 70.728 0 0 1 609.57 62.66 A 69.263 69.263 0 0 1 608.952 72.247 Q 607.486 82.704 602.55 88.92 A 22.458 22.458 0 0 1 586.231 97.654 A 29.685 29.685 0 0 1 583.7 97.76 Q 576.29 97.76 571.35 94.315 A 23.289 23.289 0 0 1 565.037 87.648 A 29.206 29.206 0 0 1 563.42 84.76 L 562.64 84.76 L 562.64 96.2 L 548.47 96.2 Z M 62.4 60.84 L 62.4 66.17 L 14.3 66.17 L 14.3 68.38 A 20.813 20.813 0 0 0 15.116 74.34 A 16.474 16.474 0 0 0 19.24 81.315 A 16.287 16.287 0 0 0 27.348 85.729 A 24.503 24.503 0 0 0 32.89 86.32 A 25.264 25.264 0 0 0 38.217 85.785 A 18.674 18.674 0 0 0 44.005 83.525 Q 48.62 80.73 51.48 76.05 L 60.32 83.85 A 24.843 24.843 0 0 1 54.699 90.452 A 33.197 33.197 0 0 1 49.985 93.73 Q 43.662 97.394 34.491 97.727 A 51.317 51.317 0 0 1 32.63 97.76 Q 24.96 97.76 18.85 95.29 Q 12.74 92.82 8.58 88.27 A 29.894 29.894 0 0 1 3.271 80.01 A 35.738 35.738 0 0 1 2.21 77.285 A 40.103 40.103 0 0 1 0.365 69.071 A 52.149 52.149 0 0 1 0 62.79 Q 0 54.73 2.275 48.23 A 35.232 35.232 0 0 1 5.724 41.008 A 30.055 30.055 0 0 1 8.645 37.115 Q 12.74 32.5 18.59 30.03 Q 24.44 27.56 31.59 27.56 A 35.531 35.531 0 0 1 39.077 28.321 A 29.563 29.563 0 0 1 44.33 29.965 Q 50.05 32.37 54.08 36.79 A 29.771 29.771 0 0 1 59.615 45.635 A 34.783 34.783 0 0 1 60.255 47.32 A 37.849 37.849 0 0 1 62.147 55.899 A 46.911 46.911 0 0 1 62.4 60.84 Z M 530.4 60.84 L 530.4 66.17 L 482.3 66.17 L 482.3 68.38 A 20.813 20.813 0 0 0 483.116 74.34 A 16.474 16.474 0 0 0 487.24 81.315 A 16.287 16.287 0 0 0 495.348 85.729 A 24.503 24.503 0 0 0 500.89 86.32 A 25.264 25.264 0 0 0 506.217 85.785 A 18.674 18.674 0 0 0 512.005 83.525 Q 516.62 80.73 519.48 76.05 L 528.32 83.85 A 24.843 24.843 0 0 1 522.699 90.452 A 33.197 33.197 0 0 1 517.985 93.73 Q 511.662 97.394 502.491 97.727 A 51.317 51.317 0 0 1 500.63 97.76 Q 492.96 97.76 486.85 95.29 Q 480.74 92.82 476.58 88.27 A 29.894 29.894 0 0 1 471.271 80.01 A 35.738 35.738 0 0 1 470.21 77.285 A 40.103 40.103 0 0 1 468.365 69.071 A 52.149 52.149 0 0 1 468 62.79 Q 468 54.73 470.275 48.23 A 35.232 35.232 0 0 1 473.724 41.008 A 30.055 30.055 0 0 1 476.645 37.115 Q 480.74 32.5 486.59 30.03 Q 492.44 27.56 499.59 27.56 A 35.531 35.531 0 0 1 507.077 28.321 A 29.563 29.563 0 0 1 512.33 29.965 Q 518.05 32.37 522.08 36.79 A 29.771 29.771 0 0 1 527.615 45.635 A 34.783 34.783 0 0 1 528.255 47.32 A 37.849 37.849 0 0 1 530.147 55.899 A 46.911 46.911 0 0 1 530.4 60.84 Z M 137.67 43.42 L 126.62 49.4 A 17.412 17.412 0 0 0 123.909 44.668 A 15.405 15.405 0 0 0 121.095 41.99 A 13.412 13.412 0 0 0 116.249 39.783 Q 114.368 39.325 112.174 39.268 A 24.331 24.331 0 0 0 111.54 39.26 A 21.366 21.366 0 0 0 106.429 39.836 A 14.3 14.3 0 0 0 99.06 44.135 A 16.593 16.593 0 0 0 95.163 51.905 A 24.216 24.216 0 0 0 94.64 57.07 L 94.64 68.25 Q 94.64 76.18 99.06 81.12 Q 103.432 86.006 111.62 86.059 A 27.806 27.806 0 0 0 111.8 86.06 A 22.33 22.33 0 0 0 116.16 85.658 Q 118.87 85.118 121.003 83.856 A 13.227 13.227 0 0 0 122.005 83.2 A 19.079 19.079 0 0 0 127.188 77.497 A 23.641 23.641 0 0 0 128.31 75.4 L 138.71 81.77 Q 135.46 88.79 128.83 93.275 Q 122.2 97.76 111.67 97.76 Q 104.13 97.76 98.215 95.29 Q 92.3 92.82 88.205 88.27 Q 84.11 83.72 81.965 77.22 Q 79.82 70.72 79.82 62.66 A 52.182 52.182 0 0 1 80.426 54.537 A 40.752 40.752 0 0 1 81.965 48.1 A 32.945 32.945 0 0 1 85.2 41.069 A 28.006 28.006 0 0 1 88.205 37.05 Q 92.3 32.5 98.215 30.03 A 31.795 31.795 0 0 1 106.623 27.852 A 40.232 40.232 0 0 1 111.54 27.56 A 40.054 40.054 0 0 1 118.206 28.082 Q 121.987 28.721 125.044 30.141 A 20.908 20.908 0 0 1 128.245 31.98 Q 134.55 36.4 137.67 43.42 Z M 257.749 97.063 A 38.254 38.254 0 0 0 265.2 97.76 A 40.232 40.232 0 0 0 270.118 97.468 A 31.795 31.795 0 0 0 278.525 95.29 Q 284.44 92.82 288.535 88.27 A 28.614 28.614 0 0 0 291.551 84.251 A 33.826 33.826 0 0 0 294.84 77.22 A 39.755 39.755 0 0 0 296.427 70.783 A 50.679 50.679 0 0 0 297.05 62.66 Q 297.05 54.6 294.84 48.1 A 36.546 36.546 0 0 0 293.576 44.878 A 29.969 29.969 0 0 0 288.535 37.05 Q 284.44 32.5 278.525 30.03 A 30.703 30.703 0 0 0 272.652 28.257 A 38.254 38.254 0 0 0 265.2 27.56 A 40.232 40.232 0 0 0 260.283 27.852 A 31.795 31.795 0 0 0 251.875 30.03 Q 245.96 32.5 241.865 37.05 A 28.614 28.614 0 0 0 238.849 41.069 A 33.826 33.826 0 0 0 235.56 48.1 A 39.755 39.755 0 0 0 233.974 54.537 A 50.679 50.679 0 0 0 233.35 62.66 Q 233.35 70.72 235.56 77.22 A 36.546 36.546 0 0 0 236.825 80.442 A 29.969 29.969 0 0 0 241.865 88.27 Q 245.96 92.82 251.875 95.29 A 30.703 30.703 0 0 0 257.749 97.063 Z M 725.749 97.063 A 38.254 38.254 0 0 0 733.2 97.76 A 40.232 40.232 0 0 0 738.118 97.468 A 31.795 31.795 0 0 0 746.525 95.29 Q 752.44 92.82 756.535 88.27 A 28.614 28.614 0 0 0 759.551 84.251 A 33.826 33.826 0 0 0 762.84 77.22 A 39.755 39.755 0 0 0 764.427 70.783 A 50.679 50.679 0 0 0 765.05 62.66 Q 765.05 54.6 762.84 48.1 A 36.546 36.546 0 0 0 761.576 44.878 A 29.969 29.969 0 0 0 756.535 37.05 Q 752.44 32.5 746.525 30.03 A 30.703 30.703 0 0 0 740.652 28.257 A 38.254 38.254 0 0 0 733.2 27.56 A 40.232 40.232 0 0 0 728.283 27.852 A 31.795 31.795 0 0 0 719.875 30.03 Q 713.96 32.5 709.865 37.05 A 28.614 28.614 0 0 0 706.849 41.069 A 33.826 33.826 0 0 0 703.56 48.1 A 39.755 39.755 0 0 0 701.974 54.537 A 50.679 50.679 0 0 0 701.35 62.66 Q 701.35 70.72 703.56 77.22 A 36.546 36.546 0 0 0 704.825 80.442 A 29.969 29.969 0 0 0 709.865 88.27 Q 713.96 92.82 719.875 95.29 A 30.703 30.703 0 0 0 725.749 97.063 Z M 282.23 67.73 L 282.23 57.59 Q 282.23 51.264 280.122 47.045 A 14.117 14.117 0 0 0 277.615 43.485 A 15.363 15.363 0 0 0 269.011 39.055 A 22.057 22.057 0 0 0 265.2 38.74 A 20.724 20.724 0 0 0 259.798 39.407 A 15.048 15.048 0 0 0 252.785 43.485 A 14.973 14.973 0 0 0 249.342 49.329 Q 248.573 51.655 248.309 54.486 A 33.411 33.411 0 0 0 248.17 57.59 L 248.17 67.73 Q 248.17 74.056 250.279 78.275 A 14.117 14.117 0 0 0 252.785 81.835 A 15.363 15.363 0 0 0 261.39 86.265 A 22.057 22.057 0 0 0 265.2 86.58 A 20.724 20.724 0 0 0 270.602 85.913 A 15.048 15.048 0 0 0 277.615 81.835 A 14.973 14.973 0 0 0 281.059 75.991 Q 281.828 73.665 282.092 70.834 A 33.411 33.411 0 0 0 282.23 67.73 Z M 750.23 67.73 L 750.23 57.59 Q 750.23 51.264 748.122 47.045 A 14.117 14.117 0 0 0 745.615 43.485 A 15.363 15.363 0 0 0 737.011 39.055 A 22.057 22.057 0 0 0 733.2 38.74 A 20.724 20.724 0 0 0 727.798 39.407 A 15.048 15.048 0 0 0 720.785 43.485 A 14.973 14.973 0 0 0 717.342 49.329 Q 716.573 51.655 716.309 54.486 A 33.411 33.411 0 0 0 716.17 57.59 L 716.17 67.73 Q 716.17 74.056 718.279 78.275 A 14.117 14.117 0 0 0 720.785 81.835 A 15.363 15.363 0 0 0 729.39 86.265 A 22.057 22.057 0 0 0 733.2 86.58 A 20.724 20.724 0 0 0 738.602 85.913 A 15.048 15.048 0 0 0 745.615 81.835 A 14.973 14.973 0 0 0 749.059 75.991 Q 749.828 73.665 750.092 70.834 A 33.411 33.411 0 0 0 750.23 67.73 Z M 594.62 68.12 L 594.62 57.2 A 25.011 25.011 0 0 0 594.033 51.624 Q 593.021 47.196 590.265 44.07 Q 585.91 39.13 577.85 39.13 A 22.132 22.132 0 0 0 573.656 39.516 A 19.354 19.354 0 0 0 572 39.91 A 15.265 15.265 0 0 0 568.554 41.351 A 13.545 13.545 0 0 0 567.19 42.25 Q 565.11 43.81 563.875 46.085 Q 562.64 48.36 562.64 51.48 L 562.64 73.84 A 13.239 13.239 0 0 0 562.894 76.494 A 9.84 9.84 0 0 0 563.875 79.235 Q 565.11 81.51 567.19 83.07 A 14.249 14.249 0 0 0 570.999 85.09 A 16.694 16.694 0 0 0 572 85.41 A 20.545 20.545 0 0 0 576.504 86.153 A 23.981 23.981 0 0 0 577.85 86.19 Q 585.91 86.19 590.265 81.25 A 16.862 16.862 0 0 0 594.008 73.805 Q 594.611 71.232 594.62 68.216 A 30.68 30.68 0 0 0 594.62 68.12 Z M 14.3 56.16 L 14.3 57.07 L 47.97 57.07 L 47.97 55.77 A 22.716 22.716 0 0 0 47.353 50.323 A 15.833 15.833 0 0 0 43.485 43.095 A 14.911 14.911 0 0 0 34.266 38.517 A 20.804 20.804 0 0 0 31.59 38.35 A 19.159 19.159 0 0 0 26.894 38.91 A 16.886 16.886 0 0 0 24.635 39.65 Q 21.45 40.95 19.175 43.355 A 17.644 17.644 0 0 0 15.683 48.808 A 19.985 19.985 0 0 0 15.6 49.01 A 18.3 18.3 0 0 0 14.382 54.251 A 22.036 22.036 0 0 0 14.3 56.16 Z M 482.3 56.16 L 482.3 57.07 L 515.97 57.07 L 515.97 55.77 A 22.716 22.716 0 0 0 515.353 50.323 A 15.833 15.833 0 0 0 511.485 43.095 A 14.911 14.911 0 0 0 502.266 38.517 A 20.804 20.804 0 0 0 499.59 38.35 A 19.159 19.159 0 0 0 494.894 38.91 A 16.886 16.886 0 0 0 492.635 39.65 Q 489.45 40.95 487.175 43.355 A 17.644 17.644 0 0 0 483.683 48.808 A 19.985 19.985 0 0 0 483.6 49.01 A 18.3 18.3 0 0 0 482.382 54.251 A 22.036 22.036 0 0 0 482.3 56.16 Z" vector-effect="non-scaling-stroke"/></g></svg>